<svg class="cdibk cdzmb ca1ms ch3pd cq6fz c518d csbhs c5u3j cvjd3 c6jif" width="480" height="480" viewBox="0 0 480 480" xmlns="http://www.w3.org/2000/svg">
                                                    <defs>
                                                        <linearGradient id="pulse-a" x1="50%" x2="50%" y1="100%" y2="0%">
                                                            <stop offset="0%" stop-color="#A855F7"/>
                                                            <stop offset="76.382%" stop-color="#FAF5FF"/>
                                                            <stop offset="100%" stop-color="#6366F1"/>
                                                        </linearGradient>
                                                    </defs>
                                                    <g fill-rule="evenodd">
                                                        <path class="c3wbi" fill="url(#pulse-a)" fill-rule="evenodd" d="M240,0 C372.5484,0 480,107.4516 480,240 C480,372.5484 372.5484,480 240,480 C107.4516,480 0,372.5484 0,240 C0,107.4516 107.4516,0 240,0 Z M240,88.8 C156.4944,88.8 88.8,156.4944 88.8,240 C88.8,323.5056 156.4944,391.2 240,391.2 C323.5056,391.2 391.2,323.5056 391.2,240 C391.2,156.4944 323.5056,88.8 240,88.8 Z"/>
                                                        <path class="c6sru c3wbi" fill="url(#pulse-a)" fill-rule="evenodd" d="M240,0 C372.5484,0 480,107.4516 480,240 C480,372.5484 372.5484,480 240,480 C107.4516,480 0,372.5484 0,240 C0,107.4516 107.4516,0 240,0 Z M240,88.8 C156.4944,88.8 88.8,156.4944 88.8,240 C88.8,323.5056 156.4944,391.2 240,391.2 C323.5056,391.2 391.2,323.5056 391.2,240 C391.2,156.4944 323.5056,88.8 240,88.8 Z"/>
                                                        <path class="chkdx c3wbi" fill="url(#pulse-a)" fill-rule="evenodd" d="M240,0 C372.5484,0 480,107.4516 480,240 C480,372.5484 372.5484,480 240,480 C107.4516,480 0,372.5484 0,240 C0,107.4516 107.4516,0 240,0 Z M240,88.8 C156.4944,88.8 88.8,156.4944 88.8,240 C88.8,323.5056 156.4944,391.2 240,391.2 C323.5056,391.2 391.2,323.5056 391.2,240 C391.2,156.4944 323.5056,88.8 240,88.8 Z"/>
                                                    </g>
                                                </svg>