<svg xmlns="http://www.w3.org/2000/svg" width="32" height="32">
                                            <path class="c01eg c12cr czkwf" d="M12.29 14.3a.69.69 0 0 0-.416-.155h-.623v3.727h.623a.689.689 0 0 0 .416-.156.543.543 0 0 0 .21-.466v-2.488a.547.547 0 0 0-.21-.462ZM22.432 8H9.568C8.704 8 8.002 8.7 8 9.564v12.872A1.568 1.568 0 0 0 9.568 24h12.864c.864 0 1.566-.7 1.568-1.564V9.564A1.568 1.568 0 0 0 22.432 8Zm-8.925 9.257a1.631 1.631 0 0 1-1.727 1.687h-1.657v-5.909h1.692a1.631 1.631 0 0 1 1.692 1.689v2.533ZM17.1 14.09h-1.9v1.372h1.163v1.057H15.2v1.371h1.9v1.056h-2.217a.72.72 0 0 1-.74-.7v-4.471a.721.721 0 0 1 .7-.739H17.1v1.054Zm3.7 4.118c-.471 1.1-1.316.88-1.694 0l-1.372-5.172H18.9l1.058 4.064 1.056-4.062h1.164l-1.378 5.17Z"/>
                                        </svg>