<svg class="c7u3b c4lt2" xmlns="http://www.w3.org/2000/svg" width="22" height="22">
                                                            <path d="M18 14h-2V8h2c2.2 0 4-1.8 4-4s-1.8-4-4-4-4 1.8-4 4v2H8V4c0-2.2-1.8-4-4-4S0 1.8 0 4s1.8 4 4 4h2v6H4c-2.2 0-4 1.8-4 4s1.8 4 4 4 4-1.8 4-4v-2h6v2c0 2.2 1.8 4 4 4s4-1.8 4-4-1.8-4-4-4ZM16 4c0-1.1.9-2 2-2s2 .9 2 2-.9 2-2 2h-2V4ZM2 4c0-1.1.9-2 2-2s2 .9 2 2v2H4c-1.1 0-2-.9-2-2Zm4 14c0 1.1-.9 2-2 2s-2-.9-2-2 .9-2 2-2h2v2ZM8 8h6v6H8V8Zm10 12c-1.1 0-2-.9-2-2v-2h2c1.1 0 2 .9 2 2s-.9 2-2 2Z"/>
                                                        </svg>