<svg class="c21kk clbq5" xmlns="http://www.w3.org/2000/svg" width="16" height="16">
                                                <path d="M13 16c-.153 0-.306-.035-.447-.105l-3.851-1.926c-.231.02-.465.031-.702.031-4.411 0-8-3.14-8-7s3.589-7 8-7 8 3.14 8 7c0 1.723-.707 3.351-2 4.63V15a1.003 1.003 0 0 1-1 1Zm-4.108-4.054c.155 0 .308.036.447.105L12 13.382v-2.187c0-.288.125-.562.341-.752C13.411 9.506 14 8.284 14 7c0-2.757-2.691-5-6-5S2 4.243 2 7s2.691 5 6 5c.266 0 .526-.02.783-.048a1.01 1.01 0 0 1 .109-.006Z"/>
                                            </svg>