<svg class="c21kk clbq5" xmlns="http://www.w3.org/2000/svg" width="16" height="16">
                                                <path d="M15.5 11H13a5.022 5.022 0 0 1-3.453-1.4l-1.2 1.607A7.065 7.065 0 0 0 12 12.92v1.586a.5.5 0 0 0 .853.349l3-3A.5.5 0 0 0 15.5 11ZM1 5a5.022 5.022 0 0 1 3.453 1.4l1.205-1.61A7.028 7.028 0 0 0 1 3a1 1 0 1 0 0 2ZM13 5h2.5a.5.5 0 0 0 .354-.853l-3-3A.5.5 0 0 0 12 1.5v1.58a7.032 7.032 0 0 0-4.6 2.72L5 9a5.025 5.025 0 0 1-4 2 1 1 0 0 0 0 2 7.034 7.034 0 0 0 5.6-2.8L9 7a5.025 5.025 0 0 1 4-2Z"/>
                                            </svg>